<?xml version="1.0" standalone="no"?>
<!DOCTYPE svg PUBLIC "-//W3C//DTD SVG 20010904//EN"
 "http://www.w3.org/TR/2001/REC-SVG-20010904/DTD/svg10.dtd">
<svg version="1.0" xmlns="http://www.w3.org/2000/svg"
 viewBox="0 0 2600.000000 2600.000000"
 preserveAspectRatio="xMidYMid meet">
<metadata>
Created by potrace 1.15, written by Peter Selinger 2001-2017
</metadata>
<g transform="translate(0.000000,2600.000000) scale(0.100000,-0.100000)"
fill="#000000" stroke="none">
<path d="M5900 23764 c-30 -8 -78 -29 -107 -46 -69 -42 -3080 -3054 -3116
-3118 -73 -127 -74 -268 -2 -410 31 -62 -304 274 4380 -4402 2790 -2786 2912
-2906 2970 -2929 50 -20 78 -24 165 -24 98 0 110 2 175 33 67 32 129 92 1602
1565 1473 1473 1533 1535 1565 1602 31 66 33 76 33 180 0 105 -2 114 -34 180
-32 67 -181 218 -3655 3691 -3184 3184 -3628 3624 -3677 3647 -104 49 -197 58
-299 31z m500 -2279 l-445 -445 -420 420 -420 420 445 445 445 445 420 -420
420 -420 -445 -445z m1430 -1430 l-445 -445 -420 420 -420 420 445 445 445
445 420 -420 420 -420 -445 -445z m-2887 807 l417 -417 -445 -445 -445 -445
-420 420 -420 420 442 442 c244 244 445 443 448 443 3 0 193 -188 423 -418z
m4317 -2237 l-445 -445 -420 420 -420 420 445 445 445 445 420 -420 420 -420
-445 -445z m-2887 807 l417 -417 -445 -445 -445 -445 -420 420 -420 420 442
442 c244 244 445 443 448 443 3 0 193 -188 423 -418z m4317 -2237 l-445 -445
-420 420 -420 420 445 445 445 445 420 -420 420 -420 -445 -445z m-2887 807
l417 -417 -445 -445 -445 -445 -420 420 -420 420 442 442 c244 244 445 443
448 443 3 0 193 -188 423 -418z m4312 -2232 l-445 -445 -417 418 -418 417 445
445 445 445 417 -417 418 -418 -445 -445z m-2882 802 l417 -417 -445 -445
-445 -445 -420 420 -420 420 442 442 c244 244 445 443 448 443 3 0 193 -188
423 -418z m1427 -1427 l415 -415 -445 -445 -445 -445 -417 417 -418 418 442
442 c244 244 445 443 448 443 3 0 192 -187 420 -415z"/>
<path d="M14035 15690 c-131 -21 -267 -75 -370 -148 -27 -19 -768 -753 -1646
-1630 l-1596 -1594 -69 40 c-306 177 -676 306 -1044 363 -173 27 -527 37 -707
20 -574 -54 -1118 -266 -1558 -608 -127 -99 -306 -265 -341 -317 -90 -133 -97
-304 -17 -446 16 -28 335 -356 852 -872 l826 -828 -621 -622 c-534 -535 -625
-631 -647 -679 -135 -292 83 -615 404 -597 65 4 91 11 151 41 68 34 112 75
688 651 l615 616 750 -748 c868 -866 795 -807 990 -807 99 0 116 3 168 27 75
35 101 57 215 182 659 714 927 1700 721 2654 -40 186 -142 489 -208 621 -17
33 -31 66 -31 73 0 7 731 744 1624 1638 1183 1183 1635 1642 1664 1688 210
329 167 763 -105 1036 -155 156 -337 238 -554 250 -52 2 -121 1 -154 -4z"/>
<path d="M15405 14276 c-124 -30 -59 32 -1682 -1590 -1679 -1679 -1576 -1569
-1604 -1720 -16 -84 -2 -164 42 -256 30 -60 288 -321 3651 -3680 4061 -4057
3669 -3681 3843 -3688 99 -5 164 9 235 51 43 24 3059 3035 3101 3094 84 121
95 282 28 423 -29 61 -258 292 -3648 3682 -3866 3867 -3642 3648 -3778 3683
-67 18 -119 18 -188 1z m515 -1421 l415 -415 -445 -445 -445 -445 -417 417
-418 418 442 442 c244 244 445 443 448 443 3 0 192 -187 420 -415z m1430
-1430 l415 -415 -445 -445 -445 -445 -417 417 -418 418 442 442 c244 244 445
443 448 443 3 0 192 -187 420 -415z m-2945 -915 l-445 -445 -417 418 -418 417
445 445 445 445 417 -417 418 -418 -445 -445z m4345 -1375 l-445 -445 -420
420 -420 420 445 445 445 445 420 -420 420 -420 -445 -445z m-2915 -55 l-445
-445 -417 418 -418 417 445 445 445 445 417 -417 418 -418 -445 -445z m4345
-1375 l-445 -445 -420 420 -420 420 445 445 445 445 420 -420 420 -420 -445
-445z m-2887 807 l417 -417 -445 -445 -445 -445 -420 420 -420 420 442 442
c244 244 445 443 448 443 3 0 193 -188 423 -418z m4317 -2237 l-445 -445 -420
420 -420 420 445 445 445 445 420 -420 420 -420 -445 -445z m-2887 807 l417
-417 -445 -445 -445 -445 -420 420 -420 420 442 442 c244 244 445 443 448 443
3 0 193 -188 423 -418z m1430 -1430 l417 -417 -445 -445 -445 -445 -420 420
-420 420 442 442 c244 244 445 443 448 443 3 0 193 -188 423 -418z"/>
<path d="M5390 8379 c-199 -39 -345 -237 -326 -444 7 -86 61 -296 110 -430
281 -767 967 -1367 1755 -1535 145 -31 245 -26 335 19 85 41 156 112 197 197
65 131 48 306 -40 424 -75 100 -134 133 -316 179 -66 16 -157 43 -202 60 -375
139 -702 435 -876 794 -58 119 -91 213 -127 358 -35 141 -62 198 -127 262
-101 101 -241 144 -383 116z"/>
<path d="M4170 8051 c-173 -55 -290 -216 -290 -398 0 -103 89 -421 189 -681
52 -131 202 -426 288 -562 387 -617 963 -1118 1612 -1404 242 -106 607 -221
766 -241 62 -8 170 15 237 52 144 79 237 266 210 423 -32 180 -146 303 -324
349 -311 82 -453 132 -657 235 -561 280 -996 718 -1271 1281 -93 189 -154 355
-206 559 -46 182 -82 249 -173 318 -108 83 -256 110 -381 69z"/>
<path d="M3047 7750 c-129 -22 -253 -117 -310 -237 -48 -104 -49 -198 -4 -373
221 -850 623 -1570 1220 -2187 634 -654 1428 -1114 2298 -1333 173 -43 200
-46 281 -29 292 62 429 388 268 639 -68 105 -137 146 -340 200 -994 263 -1809
840 -2365 1675 -253 381 -429 777 -550 1240 -20 77 -51 166 -68 198 -55 105
-166 183 -291 206 -66 12 -70 12 -139 1z"/>
</g>
</svg>
